<?xml version="1.0" encoding="UTF-8" standalone="no"?>
<svg
   xmlns:dc="http://purl.org/dc/elements/1.1/"
   xmlns:cc="http://creativecommons.org/ns#"
   xmlns:rdf="http://www.w3.org/1999/02/22-rdf-syntax-ns#"
   xmlns:svg="http://www.w3.org/2000/svg"
   xmlns="http://www.w3.org/2000/svg"
   viewBox="0 0 1600 1600"
   height="1600"
   width="1600"
   xml:space="preserve"
   id="svg2"
   version="1.1"><metadata
     id="metadata8"><rdf:RDF><cc:Work
         rdf:about=""><dc:format>image/svg+xml</dc:format><dc:type
           rdf:resource="http://purl.org/dc/dcmitype/StillImage" /></cc:Work></rdf:RDF></metadata><defs
     id="defs6"><clipPath
       id="clipPath18"
       clipPathUnits="userSpaceOnUse"><path
         id="path16"
         d="M 0,1200 H 1200 V 0 H 0 Z" /></clipPath></defs><g
     transform="matrix(1.3333333,0,0,-1.3333333,0,1600)"
     id="g10"><g
       id="g12"><g
         clip-path="url(#clipPath18)"
         id="g14"><g
           transform="translate(149.5293,424.1611)"
           id="g20"><path
             id="path22"
             style="fill:#100f0d;fill-opacity:1;fill-rule:nonzero;stroke:none"
             d="M 0,0 H 16.328 L 8.387,17.664 Z M 17.59,-2.82 H -1.336 l -7.199,-15.289 c -1.559,-3.266 0.371,-5.938 4.379,-5.938 v -0.148 h -16.106 v 0.148 c 2.895,0 6.383,2.227 8.61,6.977 l 21.3,45.125 H 9.797 L 30.504,-17.59 c 1.93,-4.23 5.121,-6.457 8.906,-6.457 v -0.148 H 19.965 v 0.148 c 4.601,0 6.234,2.301 4.972,5.121 z" /></g><g
           transform="translate(214.8232,451.7705)"
           id="g24"><path
             id="path26"
             style="fill:#100f0d;fill-opacity:1;fill-rule:nonzero;stroke:none"
             d="M 0,0 C -2.301,0 -4.156,-1.855 -4.156,-4.156 V -47.5 c 0,-2.301 1.855,-4.156 4.156,-4.156 v -0.149 h -13.953 v 0.149 c 2.301,0 4.156,1.855 4.156,4.156 V -4.156 C -9.797,-1.855 -11.652,0 -13.953,0 V 0.148 L 0,0.148 Z" /></g><g
           transform="translate(256.9609,440.3408)"
           id="g28"><path
             id="path30"
             style="fill:#100f0d;fill-opacity:1;fill-rule:nonzero;stroke:none"
             d="m 0,0 c -1.113,2.598 -8.98,8.758 -15.363,8.758 -4.528,0 -7.571,-3.117 -7.571,-6.828 0,-10.614 24.344,-14.176 24.344,-29.094 0,-7.348 -5.863,-13.508 -14.695,-13.508 -6.457,0 -10.613,3.34 -14.176,2.82 l -2.746,10.836 h 0.297 c 0.594,-2.3 7.644,-10.539 16.105,-10.539 5.938,0 9.575,4.082 9.575,8.981 0,12.617 -23.899,15.437 -23.899,29.168 0,6.754 5.863,11.281 12.988,11.281 4.899,0 7.719,-2.152 11.356,-2.449 L 0.223,0 Z" /></g><g
           transform="translate(315.5752,444.126)"
           id="g32"><path
             id="path34"
             style="fill:#100f0d;fill-opacity:1;fill-rule:nonzero;stroke:none"
             d="m 0,0 c -0.297,2.746 -2.598,4.973 -5.121,4.973 h -14.621 v -44.828 c 0,-2.301 1.855,-4.157 4.156,-4.157 v -0.148 h -13.953 v 0.148 c 2.301,0 4.156,1.856 4.156,4.157 V 4.973 h -14.621 c -2.523,0 -4.824,-2.227 -5.121,-4.973 h -0.148 l 0.519,7.793 H -0.371 L 0.148,0 Z" /></g><g
           transform="translate(349.9941,462.1611)"
           id="g36"><path
             id="path38"
             style="fill:#100f0d;fill-opacity:1;fill-rule:nonzero;stroke:none"
             d="m 0,0 c 0,-2.078 -1.633,-3.711 -3.711,-3.711 -2.078,0 -3.711,1.633 -3.711,3.711 0,2.078 1.633,3.711 3.711,3.711 C -1.633,3.711 0,2.078 0,0 m 9.055,-10.242 0.519,-7.942 H 9.426 c -0.371,2.895 -2.227,4.825 -5.121,4.825 H -12.543 V -34.141 H 2.375 c 2.375,0 4.305,1.93 4.305,4.305 H 6.828 V -41.563 H 6.68 c 0,2.375 -1.93,4.305 -4.305,4.305 H -12.543 V -54.18 c 0,-2.672 2.227,-4.898 4.898,-4.898 H 5.641 c 4.156,0 8.164,3.562 8.98,8.238 H 14.77 L 13.211,-62.195 H -22.34 v 0.148 c 2.301,0 4.156,1.856 4.156,4.156 v 43.344 c 0,2.301 -1.855,4.156 -4.156,4.156 v 0.149 z" /></g><g
           transform="translate(420.5752,403.083)"
           id="g40"><path
             id="path42"
             style="fill:#100f0d;fill-opacity:1;fill-rule:nonzero;stroke:none"
             d="m 0,0 h 8.016 c 6.679,0 11.949,4.008 11.949,10.91 0,6.606 -4.75,11.652 -11.504,11.652 l -8.461,0 z m 0,25.531 h 4.602 c 6.605,0 10.984,3.563 10.984,10.02 0,6.308 -4.156,10.168 -10.168,10.168 H 0 Z m 7.867,23.305 c 8.684,0 13.656,-5.27 13.656,-12.469 0,-5.492 -2.82,-9.277 -6.753,-11.43 C 21.523,23.23 25.902,17.887 25.902,11.281 25.902,2.449 18.258,-3.117 9.5,-3.117 H -9.797 v 0.148 c 2.301,0 4.156,1.856 4.156,4.156 v 43.344 c 0,2.301 -1.855,4.157 -4.156,4.157 v 0.148 z" /></g><g
           transform="translate(472.6768,424.1611)"
           id="g44"><path
             id="path46"
             style="fill:#100f0d;fill-opacity:1;fill-rule:nonzero;stroke:none"
             d="M 0,0 H 16.328 L 8.387,17.664 Z M 17.59,-2.82 H -1.336 l -7.199,-15.289 c -1.559,-3.266 0.371,-5.938 4.379,-5.938 v -0.148 h -16.106 v 0.148 c 2.895,0 6.383,2.227 8.61,6.977 l 21.3,45.125 H 9.797 L 30.504,-17.59 c 1.93,-4.23 5.121,-6.457 8.906,-6.457 v -0.148 H 19.965 v 0.148 c 4.601,0 6.234,2.301 4.972,5.121 z" /></g><g
           transform="translate(530.7158,448.8018)"
           id="g48"><path
             id="path50"
             style="fill:#100f0d;fill-opacity:1;fill-rule:nonzero;stroke:none"
             d="m 0,0 v -21.969 h 6.902 c 5.715,0 10.391,4.899 10.391,10.985 C 17.293,-4.898 12.617,0 6.902,0 Z m 0,3.117 h 8.832 c 7.867,0 14.398,-6.308 14.398,-14.101 0,-6.086 -4.007,-11.356 -9.5,-13.286 5.567,-8.609 14.844,-19.816 26.942,-24.418 v -0.148 c -2.524,0 -4.305,0.074 -5.418,0.223 -11.356,1.336 -21.672,13.582 -27.609,23.527 H 0 v -19.445 c 0,-2.301 1.855,-4.157 4.156,-4.157 v -0.148 H -9.797 v 0.148 c 2.301,0 4.156,1.856 4.156,4.157 v 43.344 c 0,2.3 -1.855,4.156 -4.156,4.156 v 0.148 z" /></g><g
           transform="translate(614.6582,444.126)"
           id="g52"><path
             id="path54"
             style="fill:#100f0d;fill-opacity:1;fill-rule:nonzero;stroke:none"
             d="m 0,0 c -0.297,2.746 -2.598,4.973 -5.121,4.973 h -14.621 v -44.828 c 0,-2.301 1.855,-4.157 4.156,-4.157 v -0.148 h -13.953 v 0.148 c 2.301,0 4.156,1.856 4.156,4.157 V 4.973 h -14.621 c -2.523,0 -4.824,-2.227 -5.121,-4.973 h -0.148 l 0.519,7.793 H -0.371 L 0.148,0 Z" /></g><g
           transform="translate(638.4824,451.7705)"
           id="g56"><path
             id="path58"
             style="fill:#100f0d;fill-opacity:1;fill-rule:nonzero;stroke:none"
             d="M 0,0 C -2.301,0 -4.156,-1.855 -4.156,-4.156 V -24.492 L 17.738,-5.566 C 21.301,-2.523 21.449,0 18.109,0 V 0.148 H 35.848 V 0 C 31.543,0 26.199,-2.078 20.559,-6.977 l -19,-16.328 27.386,-23.156 c 3.489,-2.894 7.719,-5.195 12.098,-5.195 v -0.149 H 20.855 v 0.149 c 2.969,0 3.563,1.484 1.411,3.34 l -25.012,21.226 -1.41,-1.262 V -47.5 c 0,-2.301 1.855,-4.156 4.156,-4.156 v -0.149 h -13.953 v 0.149 c 2.301,0 4.156,1.855 4.156,4.156 V -4.156 C -9.797,-1.855 -11.652,0 -13.953,0 V 0.148 L 0,0.148 Z" /></g><g
           transform="translate(720.0488,451.9189)"
           id="g60"><path
             id="path62"
             style="fill:#100f0d;fill-opacity:1;fill-rule:nonzero;stroke:none"
             d="M 0,0 0.52,-7.941 H 0.371 C 0,-5.047 -1.855,-3.117 -4.75,-3.117 H -21.598 V -23.898 H -6.68 c 2.375,0 4.305,1.929 4.305,4.304 h 0.148 V -31.32 h -0.148 c 0,2.375 -1.93,4.304 -4.305,4.304 h -14.918 v -16.922 c 0,-2.671 2.227,-4.898 4.899,-4.898 h 13.285 c 4.156,0 8.164,3.563 8.98,8.238 H 5.715 L 4.156,-51.953 h -35.551 v 0.148 c 2.301,0 4.157,1.856 4.157,4.157 v 43.343 c 0,2.301 -1.856,4.157 -4.157,4.157 V 0 Z" /></g><g
           transform="translate(780.3145,447.6885)"
           id="g64"><path
             id="path66"
             style="fill:#100f0d;fill-opacity:1;fill-rule:nonzero;stroke:none"
             d="M 0,0 C 1.039,2.301 -0.445,4.082 -3.191,4.082 V 4.23 H 10.762 V 4.082 c -3.34,0 -6.235,-1.93 -7.422,-4.527 L -18.852,-48.02 H -19 l -21.82,46.758 c -1.559,3.34 -4.825,5.344 -8.313,5.344 V 4.23 h 18.406 V 4.082 c -3.339,0 -4.972,-2.449 -3.933,-4.75 l 17.144,-36.887 z" /></g><g
           transform="translate(818.3145,451.7705)"
           id="g68"><path
             id="path70"
             style="fill:#100f0d;fill-opacity:1;fill-rule:nonzero;stroke:none"
             d="M 0,0 C -2.301,0 -4.156,-1.855 -4.156,-4.156 V -47.5 c 0,-2.301 1.855,-4.156 4.156,-4.156 v -0.149 h -13.953 v 0.149 c 2.301,0 4.156,1.855 4.156,4.156 V -4.156 C -9.797,-1.855 -11.652,0 -13.953,0 V 0.148 L 0,0.148 Z" /></g><g
           transform="translate(859.4316,453.5518)"
           id="g72"><path
             id="path74"
             style="fill:#100f0d;fill-opacity:1;fill-rule:nonzero;stroke:none"
             d="M 0,0 -8.98,10.836 -8.758,11.059 1.855,4.305 12.469,11.059 12.691,10.836 3.711,0 Z m 19.742,-48.836 c -3.562,-2.227 -10.539,-5.047 -18.703,-5.047 -17.144,0 -27.684,12.395 -27.684,25.828 0,13.805 11.133,26.719 28.797,26.719 6.903,0 9.871,-2.004 15.438,-2.969 l 1.187,-11.207 h -0.148 c -0.668,4.676 -7.125,11.059 -16.848,11.059 -12.097,0 -22.191,-9.945 -22.191,-23.082 0,-12.469 8.98,-23.231 22.34,-23.231 10.019,0 18.629,6.161 19.742,14.473 h 0.148 z" /></g><g
           transform="translate(908.7129,451.7705)"
           id="g76"><path
             id="path78"
             style="fill:#100f0d;fill-opacity:1;fill-rule:nonzero;stroke:none"
             d="M 0,0 C -2.301,0 -4.156,-1.855 -4.156,-4.156 V -47.5 c 0,-2.301 1.855,-4.156 4.156,-4.156 v -0.149 h -13.953 v 0.149 c 2.301,0 4.156,1.855 4.156,4.156 V -4.156 C -9.797,-1.855 -11.652,0 -13.953,0 V 0.148 L 0,0.148 Z" /></g><g
           transform="translate(952.5762,451.9189)"
           id="g80"><path
             id="path82"
             style="fill:#100f0d;fill-opacity:1;fill-rule:nonzero;stroke:none"
             d="M 0,0 0.52,-7.941 H 0.371 C 0,-5.047 -1.855,-3.117 -4.75,-3.117 H -21.598 V -23.898 H -6.68 c 2.375,0 4.305,1.929 4.305,4.304 h 0.148 V -31.32 h -0.148 c 0,2.375 -1.93,4.304 -4.305,4.304 h -14.918 v -16.922 c 0,-2.671 2.227,-4.898 4.899,-4.898 h 13.285 c 4.156,0 8.164,3.563 8.98,8.238 H 5.715 L 4.156,-51.953 h -35.551 v 0.148 c 2.301,0 4.157,1.856 4.157,4.157 v 43.343 c 0,2.301 -1.856,4.157 -4.157,4.157 V 0 Z" /></g><g
           transform="translate(977.8105,404.2705)"
           id="g84"><path
             id="path86"
             style="fill:#100f0d;fill-opacity:1;fill-rule:nonzero;stroke:none"
             d="M 0,0 C 0,-2.301 1.855,-4.156 4.156,-4.156 V -4.305 H -7.273 v 0.149 c 2.3,0 4.156,1.855 4.156,4.156 v 39.781 c 0,4.231 -3.488,7.719 -7.719,7.719 v 0.148 H 1.41 L 37.184,7.422 v 35.922 c 0,2.301 -1.856,4.156 -4.157,4.156 v 0.148 h 11.43 V 47.5 c -2.301,0 -4.156,-1.855 -4.156,-4.156 V -4.305 H 40.152 L 0,40.82 Z" /></g><g
           transform="translate(1055.9629,462.1611)"
           id="g88"><path
             id="path90"
             style="fill:#100f0d;fill-opacity:1;fill-rule:nonzero;stroke:none"
             d="m 0,0 c 0,-2.078 -1.633,-3.711 -3.711,-3.711 -2.078,0 -3.711,1.633 -3.711,3.711 0,2.078 1.633,3.711 3.711,3.711 C -1.633,3.711 0,2.078 0,0 m 9.055,-10.242 0.519,-7.942 H 9.426 c -0.371,2.895 -2.227,4.825 -5.121,4.825 H -12.543 V -34.141 H 2.375 c 2.375,0 4.305,1.93 4.305,4.305 H 6.828 V -41.563 H 6.68 c 0,2.375 -1.93,4.305 -4.305,4.305 H -12.543 V -54.18 c 0,-2.672 2.227,-4.898 4.898,-4.898 H 5.641 c 4.156,0 8.164,3.562 8.98,8.238 H 14.77 L 13.211,-62.195 H -22.34 v 0.148 c 2.301,0 4.156,1.856 4.156,4.156 v 43.344 c 0,2.301 -1.855,4.156 -4.156,4.156 v 0.149 z" /></g><g
           transform="translate(748.0713,652.2598)"
           id="g92"><path
             id="path94"
             style="fill:#feebef;fill-opacity:1;fill-rule:nonzero;stroke:none"
             d="m 0,0 c 0,-81.777 -66.294,-148.071 -148.071,-148.071 -81.778,0 -148.072,66.294 -148.072,148.071 0,81.777 66.294,148.071 148.072,148.071 C -66.294,148.071 0,81.777 0,0" /></g><g
           transform="translate(666.3164,667.0981)"
           id="g96"><path
             id="path98"
             style="fill:#100f0d;fill-opacity:1;fill-rule:nonzero;stroke:none"
             d="m 0,0 c -2.72,-4.696 -4.742,-8.48 -6.558,-11.552 -1.569,-3.059 -2.718,-4.696 -2.71,-4.87 0.172,1.409 1.605,7.089 4.539,17.051 5.028,17.25 9.953,31.694 15.518,43.37 4.193,9.501 9.14,18.866 14.348,27.897 l 6.394,0.509 c 0.493,0.026 1.002,-0.297 1.287,-0.984 L 32.624,70.362 C 32.435,69.301 32.271,67.716 31.869,65.943 31.468,64.171 30.812,62.561 30.392,61.136 27.8,53.996 22.238,42.322 13.954,25.95 12.149,22.702 9.896,18.557 7.425,13.874 4.95,9.191 2.471,4.683 0,0 m -23.61,-16.122 c -0.2,-0.886 -0.648,-1.786 -0.847,-2.671 -0.202,-0.888 -0.157,-1.76 -0.374,-2.297 -0.213,-0.711 -0.194,-1.061 -0.44,-1.074 -0.253,0.162 -0.253,0.162 -0.511,0.325 l -0.244,-0.014 c -2.016,0.77 -6.297,2.297 -12.838,4.582 -8.538,2.705 -14.123,5.565 -16.742,8.405 -1.835,2.006 -2.702,4.414 -2.848,7.208 -0.375,7.159 3.62,15.775 12.233,25.86 13.756,15.606 31.096,28.773 52.014,39.676 L 2.418,57.572 C -8.618,37.203 -17.217,12.758 -23.61,-16.122 m 86.813,11.9 C 62.92,1.191 59.272,4.854 52.011,6.75 l -3.99,0.667 C 38.664,6.928 26.593,1.566 11.558,-8.502 l -3.337,-2.277 5.601,10.977 c 18.66,35.128 27.662,56.616 27.251,64.476 -0.1,1.921 -0.174,3.319 -0.482,4.528 -0.549,1.023 -1.097,2.045 -2.126,2.865 -2.098,2.342 -5.413,4.27 -9.681,5.624 4.807,7.256 8.043,11.455 9.23,12.392 0.021,0.029 0.04,0.055 0.061,0.084 -2.326,2.312 -4.727,4.548 -7.202,6.703 C 26.107,92.357 19.956,84.913 12.4,74.557 -5.236,66.978 -21.282,57.38 -35.732,45.592 -57.278,27.826 -67.605,12.749 -66.956,0.348 c 0.356,-6.811 5.073,-11.994 14.151,-15.546 2.274,-0.932 5.291,-2 9.562,-3.353 7.782,-2.395 13.585,-4.719 17.635,-6.607 l -0.718,-5.118 c -1.789,-8.324 -2.406,-15.363 -2.105,-21.126 0.21,-4.017 1.104,-6.949 2.662,-8.442 1.306,-1.333 4.553,-2.038 9.499,-2.13 l 0.987,0.052 c 0.738,0.038 1.713,0.264 2.908,1.028 2.611,2.062 4.625,6.021 5.81,11.687 0.337,2.995 0.476,5.104 0.403,6.5 -0.237,4.543 -2.173,8.47 -5.558,11.795 0.992,-0.123 1.749,-0.434 2.999,-0.72 1.014,-0.47 2.011,-0.595 3.242,-0.53 0.739,0.038 3.356,1.927 7.616,5.477 21.282,18.104 38.051,28.088 50.555,29.794 0.258,-0.163 0.503,-0.15 0.761,-0.311 0.254,-0.162 0.273,-0.511 0.793,-1.01 0.273,-0.511 0.318,-1.383 0.373,-2.432 0.247,-4.716 -1.86,-11.657 -6.575,-20.659 -18.05,-32.645 -43.293,-55.333 -76.461,-68.103 -10.649,-4.234 -18.687,-6.406 -23.611,-6.664 -1.481,-0.077 -2.473,0.045 -2.731,0.206 -0.262,0.337 -0.784,0.836 -1.055,1.347 -0.839,1.882 -1.627,2.717 -2.62,2.84 -0.249,-0.013 -0.729,-0.213 -1.213,-0.415 -0.475,-0.374 -0.951,-0.749 -1.177,-1.113 -0.218,-0.537 -0.448,-0.898 -0.43,-1.248 0.046,-0.872 1.088,-1.869 3.104,-2.639 3.039,-1.418 6.278,-1.949 9.479,-1.781 4.435,0.232 8.365,0.613 12.269,1.519 6.589,1.57 13.621,4.041 21.604,7.261 7.992,3.044 14.979,6.388 20.729,9.841 14.611,8.645 27.802,20.895 39.588,36.399 12.188,17.275 18.169,30.374 17.684,39.631" /></g><g
           transform="translate(597.4863,608.8535)"
           id="g100"><path
             id="path102"
             style="fill:#100f0d;fill-opacity:1;fill-rule:nonzero;stroke:none"
             d="m 0,0 c -0.018,0.348 -0.272,0.511 -0.784,0.833 -1.042,0.997 -4.81,2.2 -6.287,2.123 -1.232,-0.065 -1.906,-1.326 -1.76,-4.12 0.164,-3.143 1.221,-4.489 4.016,-5.92 1.259,-0.459 2.27,-0.932 2.518,-0.919 0.738,0.039 0.919,1.275 0.828,3.022 -0.046,0.872 0.374,2.296 0.813,3.37 C -0.199,-0.887 0.019,-0.35 0,0" /></g><g
           transform="translate(499.4082,599.6904)"
           id="g104"><path
             id="path106"
             style="fill:#100f0d;fill-opacity:1;fill-rule:nonzero;stroke:none"
             d="m 0,0 c 3.803,12.284 7.005,21.909 10.077,29.251 1.533,3.757 2.664,5.744 3.149,5.944 0.983,0.051 2.496,-0.57 4.05,-1.89 1.807,-1.482 2.872,-3.001 2.973,-4.924 C 20.651,20.696 12.954,7.333 -2.82,-12.231 -2.727,-9.249 -1.705,-5.168 0,0 M -18.845,39.121 C -6.312,45.03 1.191,48.05 3.654,48.179 L 3.013,46.22 C 1.262,41.924 -0.087,39.402 -1.055,39 Z m 44.381,25.091 c 0.659,1.609 1.551,3.409 2.664,5.744 1.122,2.159 2.683,5.394 5.163,9.902 10.398,18.409 21.4,34.746 33.241,49.201 2.087,2.562 3.255,3.849 3.748,3.875 0.245,0.012 0.254,-0.162 0.282,-0.686 0.155,-2.971 -1.285,-13.204 -4.556,-30.888 L 61.572,74.154 c 0.036,-0.698 -0.126,-2.283 -0.482,-4.93 -0.154,-1.759 -0.602,-2.659 -0.846,-2.672 -0.485,-0.2 -0.978,-0.225 -1.717,-0.264 C 55.815,66.146 48.207,65.222 35.463,63.33 28.851,62.283 25.183,61.566 24.45,61.353 l -0.254,0.161 c -0.009,0.174 0.439,1.074 1.34,2.698 M 5.449,-19.153 c 4.223,4.248 9.74,12.067 17.049,23.484 5.91,9.767 8.765,16.571 8.564,20.414 -0.165,3.143 -1.031,5.55 -2.857,7.38 -1.826,1.833 -5.364,3.398 -10.628,4.874 -2.255,0.582 -3.505,0.868 -3.523,1.216 l 2.609,6.792 3.747,8.602 c 18.303,4.286 31.019,6.703 38.41,7.09 l 0.983,0.051 0.01,-0.174 C 53.349,14.177 50.415,-14.7 51.009,-26.052 c 0.229,-4.367 0.85,-6.786 1.616,-7.271 0.774,-0.659 2.292,-1.282 4.298,-1.877 0.748,-0.135 1.25,-0.283 1.495,-0.271 0.494,0.026 0.729,0.213 0.72,0.387 -0.299,1.035 -0.636,2.769 -0.754,5.039 -0.439,8.384 0.615,21.225 3.414,38.535 5.318,35.304 8.589,52.989 10.296,53.429 l 2.708,0.142 c 6.187,-0.202 10.145,-0.344 11.644,-0.616 1.74,-0.26 4.004,-1.016 6.541,-2.285 0.757,-0.31 1.011,-0.473 1.259,-0.46 l 0.227,0.363 c -0.138,2.62 -1.973,4.625 -5.247,5.855 -3.267,1.055 -8.987,1.806 -16.904,2.092 2.816,12.233 5.179,23.74 7.566,34.722 1.743,9.2 2.6,16.424 2.325,21.664 -0.128,2.445 -0.473,4.354 -0.813,6.088 -0.63,2.595 -2.235,4.962 -4.799,6.753 -1.287,0.984 -1.817,1.656 -1.826,1.832 0.23,0.361 1.159,1.461 2.802,3.123 4.925,4.986 8.437,8.674 10.071,10.511 6.623,5.6 10.182,8.414 10.671,8.44 l 0.987,0.051 c 0.245,0.013 0.475,0.376 0.684,1.087 -0.028,0.524 -0.291,0.859 -0.802,1.183 -0.513,0.325 -1.269,0.634 -2.026,0.946 -0.747,0.135 -1.495,0.27 -2.246,0.407 -2.699,-0.317 -6.796,-2.283 -12.021,-6.233 -5.229,-3.953 -10.191,-8.24 -14.881,-13.039 -2.363,-2.049 -3.785,-3.174 -4.523,-3.213 l -0.747,0.135 C 51.164,140.861 30.43,131.195 1.038,112.318 -17.967,100.08 -33.565,88.021 -45.578,76.302 c -0.771,-4.787 -1.311,-9.652 -1.612,-14.581 4.541,5.645 10.702,11.888 18.524,18.743 16.759,14.889 36.784,28.72 60.074,41.499 10.554,5.982 19.239,9.939 26.054,11.872 C 50.894,127.187 42.109,115.693 31.098,99.529 22.681,85.778 14.771,71.704 7.875,57.158 -14.185,49.171 -25.242,43.339 -25.54,39.645 l -0.193,-1.06 c -3.95,-0.032 -8.877,-0.29 -14.788,-0.599 -2.4,-0.126 -4.467,-0.19 -6.227,-0.19 0.102,-1.023 0.219,-2.042 0.341,-3.058 4.932,-0.349 10.735,-0.352 17.419,-0.002 l 27.359,1.081 c -10.517,-25.593 -15.296,-42.833 -14.848,-51.39 0.174,-3.32 1.025,-5.377 2.548,-6.172 2.527,-1.093 6.278,-1.947 11.228,-2.214 2.464,0.129 5.103,1.667 8.15,4.806" /></g></g></g></g></svg>