<?xml version="1.0" encoding="UTF-8" standalone="no"?>
<svg
   xmlns:dc="http://purl.org/dc/elements/1.1/"
   xmlns:cc="http://creativecommons.org/ns#"
   xmlns:rdf="http://www.w3.org/1999/02/22-rdf-syntax-ns#"
   xmlns:svg="http://www.w3.org/2000/svg"
   xmlns="http://www.w3.org/2000/svg"
   viewBox="0 0 1600 1600"
   height="1600"
   width="1600"
   xml:space="preserve"
   id="svg2"
   version="1.1"><metadata
     id="metadata8"><rdf:RDF><cc:Work
         rdf:about=""><dc:format>image/svg+xml</dc:format><dc:type
           rdf:resource="http://purl.org/dc/dcmitype/StillImage" /></cc:Work></rdf:RDF></metadata><defs
     id="defs6"><clipPath
       id="clipPath20"
       clipPathUnits="userSpaceOnUse"><path
         id="path18"
         d="M 0,1200 H 1200 V 0 H 0 Z" /></clipPath></defs><g
     transform="matrix(1.3333333,0,0,-1.3333333,0,1600)"
     id="g10"><path
       id="path12"
       style="fill:#100f0d;fill-opacity:1;fill-rule:nonzero;stroke:none"
       d="M 0,0 H 1200 V 1200 H 0 Z" /><g
       id="g14"><g
         clip-path="url(#clipPath20)"
         id="g16"><g
           transform="translate(785.2906,741.3928)"
           id="g22"><path
             id="path24"
             style="fill:#feebef;fill-opacity:1;fill-rule:nonzero;stroke:none"
             d="m 0,0 c -13.372,-28.06 -25.207,-62.768 -37.289,-104.223 -7.052,-23.941 -10.495,-37.589 -10.908,-40.974 -0.022,0.418 2.74,4.35 6.512,11.701 4.363,7.382 9.224,16.477 15.758,27.761 5.938,11.253 11.898,22.087 17.844,33.34 5.937,11.253 11.353,21.216 15.691,29.02 19.909,39.344 33.272,67.398 39.499,84.557 1.01,3.422 2.586,7.294 3.553,11.552 0.966,4.259 1.357,8.068 1.814,10.618 l 0.465,2.545 c -0.685,1.651 -1.906,2.426 -3.092,2.364 L 34.479,67.038 C 21.964,45.337 10.08,22.831 0,0" /></g><g
           transform="translate(773.2867,789.1648)"
           id="g26"><path
             id="path28"
             style="fill:#feebef;fill-opacity:1;fill-rule:nonzero;stroke:none"
             d="m 0,0 c -50.269,-26.202 -91.938,-57.845 -124.995,-95.347 -20.698,-24.235 -30.299,-44.939 -29.399,-62.143 0.352,-6.716 2.434,-12.502 6.844,-17.322 6.293,-6.824 19.716,-13.699 40.235,-20.198 15.718,-5.491 26.004,-9.161 30.848,-11.01 l 0.589,0.031 c 0.62,-0.391 0.62,-0.391 1.23,-0.779 0.587,0.031 0.544,0.872 1.053,2.581 0.524,1.29 0.413,3.386 0.902,5.518 0.477,2.127 1.553,4.29 2.032,6.42 15.366,69.402 36.028,128.144 62.55,177.094 z" /></g><g
           transform="translate(843.0133,859.8904)"
           id="g30"><path
             id="path32"
             style="fill:#feebef;fill-opacity:1;fill-rule:nonzero;stroke:none"
             d="M 0,0 C 2.644,-2.474 5.26,-4.978 7.828,-7.53 5.26,-4.978 2.645,-2.474 0,0" /></g><g
           transform="translate(365.5084,584.7415)"
           id="g34"><path
             id="path36"
             style="fill:#feebef;fill-opacity:1;fill-rule:nonzero;stroke:none"
             d="m 0,0 1.542,4.709 c -5.921,-0.311 -23.95,-7.568 -54.069,-21.77 l 42.751,-0.288 C -7.449,-16.383 -4.207,-10.323 0,0" /></g><g
           transform="translate(833.5651,868.4377)"
           id="g38"><path
             id="path40"
             style="fill:#feebef;fill-opacity:1;fill-rule:nonzero;stroke:none"
             d="M 0,0 C 2.74,-2.386 5.434,-4.823 8.098,-7.291 5.434,-4.823 2.74,-2.386 0,0" /></g><g
           transform="translate(592.3834,491.8196)"
           id="g42"><path
             id="path44"
             style="fill:#feebef;fill-opacity:1;fill-rule:nonzero;stroke:none"
             d="m 0,0 c -1.055,-2.58 -2.064,-6.003 -1.954,-8.099 0.219,-4.196 -0.215,-7.169 -1.989,-7.261 -0.598,-0.032 -3.027,1.104 -6.053,2.209 -6.716,3.436 -9.254,6.672 -9.649,14.225 -0.351,6.715 1.269,9.745 4.229,9.901 3.549,0.185 12.604,-2.705 15.108,-5.1 C 0.922,5.101 1.532,4.708 1.576,3.872 1.62,3.03 1.098,1.74 0,0 m 258.479,360.52 c -0.051,-0.071 -0.095,-0.132 -0.148,-0.204 -2.851,-2.251 -10.627,-12.342 -22.178,-29.779 10.255,-3.252 18.223,-7.886 23.265,-13.513 2.472,-1.972 3.79,-4.429 5.107,-6.886 0.742,-2.906 0.918,-6.266 1.16,-10.881 0.988,-18.887 -20.645,-70.526 -65.489,-154.943 l -13.46,-26.377 8.019,5.471 c 36.133,24.195 65.141,37.079 87.627,38.256 l 9.588,-1.604 c 17.449,-4.558 26.215,-13.359 26.895,-26.367 C 320.03,111.446 305.656,79.97 276.367,38.457 248.045,1.198 216.345,-28.24 181.232,-49.017 167.416,-57.313 150.626,-65.35 131.42,-72.664 112.236,-80.402 95.337,-86.339 79.504,-90.112 c -9.381,-2.179 -18.827,-3.092 -29.483,-3.651 -7.694,-0.402 -15.477,0.873 -22.781,4.28 -4.844,1.852 -7.347,4.247 -7.458,6.342 -0.043,0.842 0.51,1.71 1.033,3 0.544,0.872 1.686,1.776 2.828,2.674 1.164,0.485 2.319,0.965 2.917,0.996 2.383,-0.295 4.277,-2.301 6.293,-6.824 0.655,-1.228 1.906,-2.426 2.539,-3.236 0.619,-0.387 3.004,-0.682 6.561,-0.495 11.832,0.619 31.148,5.838 56.738,16.013 79.708,30.689 140.369,85.209 183.745,163.659 11.331,21.633 16.394,38.312 15.8,49.646 -0.132,2.52 -0.241,4.615 -0.895,5.844 -1.252,1.197 -1.296,2.038 -1.906,2.426 -0.62,0.387 -1.207,0.356 -1.828,0.748 -30.048,-4.099 -70.348,-28.092 -121.491,-71.597 -10.237,-8.532 -16.525,-13.069 -18.301,-13.162 -2.96,-0.155 -5.353,0.143 -7.791,1.274 -3.004,0.686 -4.822,1.435 -7.207,1.729 8.134,-7.991 12.786,-17.426 13.357,-28.343 0.176,-3.356 -0.158,-8.424 -0.971,-15.62 -2.846,-13.616 -7.684,-23.13 -13.961,-28.086 -2.872,-1.837 -5.213,-2.379 -6.987,-2.472 l -2.372,-0.124 c -11.884,0.221 -19.689,1.914 -22.824,5.119 -3.747,3.588 -5.894,10.634 -6.4,20.286 -0.724,13.85 0.759,30.765 5.059,50.767 l 1.724,12.3 C 95.71,87.919 81.766,93.504 63.065,99.259 52.801,102.51 45.55,105.075 40.086,107.315 18.271,115.853 6.936,128.308 6.079,144.676 4.52,174.475 29.338,210.707 81.112,253.4 c 34.727,28.33 73.286,51.393 115.668,69.605 18.158,24.887 32.94,42.778 44.393,53.622 -62.499,54.422 -144.176,87.384 -233.556,87.384 -180.101,0 -328.927,-133.811 -352.541,-307.433 0.393,2.889 0.82,5.768 1.281,8.635 28.867,28.16 66.351,57.14 112.021,86.549 70.634,45.363 120.459,68.592 148.286,70.049 l 1.797,-0.325 c 1.773,0.093 5.19,2.797 10.869,7.722 11.27,11.532 23.192,21.835 35.758,31.333 12.557,9.493 22.403,14.216 28.89,14.98 1.805,-0.33 3.601,-0.655 5.397,-0.98 1.818,-0.749 3.637,-1.493 4.866,-2.271 1.231,-0.78 1.863,-1.585 1.929,-2.845 -0.501,-1.708 -1.055,-2.581 -1.643,-2.612 l -2.372,-0.124 c -1.176,-0.061 -9.727,-6.823 -25.643,-20.281 -3.927,-4.413 -12.367,-13.276 -24.203,-25.257 -3.949,-3.995 -6.179,-6.638 -6.733,-7.506 0.022,-0.423 1.296,-2.039 4.388,-4.402 6.162,-4.306 10.017,-9.994 11.533,-16.229 0.817,-4.165 1.648,-8.754 1.955,-14.628 0.659,-12.595 -1.4,-29.955 -5.59,-52.063 -5.735,-26.392 -11.413,-54.044 -18.18,-83.44 19.026,-0.687 32.772,-2.493 40.621,-5.028 7.87,-2.957 12.279,-7.773 12.609,-14.07 l -0.545,-0.872 c -0.596,-0.031 -1.208,0.361 -3.025,1.105 -6.096,3.05 -11.538,4.867 -15.719,5.491 -3.602,0.655 -13.114,0.996 -27.981,1.481 l -6.509,-0.341 c -4.102,-1.058 -11.962,-43.555 -24.74,-128.396 -6.728,-41.599 -9.261,-72.455 -8.206,-92.602 0.285,-5.456 1.093,-9.622 1.813,-12.11 0.022,-0.418 -0.545,-0.867 -1.73,-0.93 -0.588,-0.03 -1.796,0.326 -3.592,0.652 -4.824,1.429 -8.469,2.925 -10.33,4.51 -1.841,1.166 -3.334,6.979 -3.884,17.473 -1.427,27.28 5.624,96.675 21.156,208.176 l -0.022,0.418 -2.364,-0.124 c -17.759,-0.929 -48.318,-6.737 -92.303,-17.036 l -9.003,-20.673 -6.271,-16.321 c 0.043,-0.837 3.048,-1.524 8.468,-2.922 12.648,-3.546 21.15,-7.309 25.538,-11.711 4.388,-4.399 6.47,-10.185 6.865,-17.737 0.484,-9.234 -6.376,-25.587 -20.579,-49.057 -17.562,-27.436 -30.821,-46.226 -40.97,-56.436 -7.322,-7.541 -13.664,-11.238 -19.584,-11.548 -11.897,0.641 -20.91,2.695 -26.984,5.322 -3.658,1.91 -5.705,6.855 -6.123,14.83 -1.076,20.564 10.407,61.993 35.682,123.497 l -65.746,-2.598 c -16.063,-0.841 -30.006,-0.835 -41.861,0.003 -0.293,2.443 -0.574,4.891 -0.817,7.35 4.227,0 9.196,0.154 14.965,0.456 14.203,0.744 26.043,1.363 35.534,1.441 l 0.466,2.545 c 0.716,8.878 27.286,22.893 80.3,42.086 16.57,34.956 35.578,68.777 55.805,101.823 26.461,38.843 47.571,66.464 63.356,82.441 -16.377,-4.646 -37.247,-14.155 -62.61,-28.531 -55.969,-30.709 -104.091,-63.947 -144.364,-99.725 -18.799,-16.473 -33.603,-31.475 -44.515,-45.043 0.541,8.88 1.407,17.672 2.587,26.364 -2.149,-15.815 -3.284,-31.952 -3.284,-48.355 0,-196.52 159.311,-355.83 355.831,-355.83 196.519,0 355.829,159.31 355.829,355.83 0,98.635 -40.139,187.889 -104.967,252.339" /></g><g
           transform="translate(426.0358,641.7815)"
           id="g46"><path
             id="path48"
             style="fill:#feebef;fill-opacity:1;fill-rule:nonzero;stroke:none"
             d="m 0,0 c -2.675,-5.611 -4.817,-9.936 -6.403,-13.803 -2.165,-3.902 -3.242,-6.065 -3.219,-6.483 l 0.61,-0.388 c 1.762,0.512 10.576,2.236 26.466,4.75 30.624,4.549 48.908,6.768 55.426,7.11 1.773,0.092 2.96,0.154 4.124,0.635 0.588,0.031 1.664,2.193 2.033,6.421 0.856,6.359 1.246,10.168 1.158,11.846 l 10.829,65.38 c 7.862,42.497 11.322,67.088 10.948,74.227 -0.067,1.259 -0.088,1.677 -0.676,1.646 -1.187,-0.062 -3.992,-3.154 -9.008,-9.311 C 63.834,107.295 37.396,68.033 12.406,23.796 6.447,12.961 2.697,5.188 0,0" /></g><g
           transform="translate(382.484,543.9641)"
           id="g50"><path
             id="path52"
             style="fill:#feebef;fill-opacity:1;fill-rule:nonzero;stroke:none"
             d="m 0,0 c -7.382,-17.643 -15.077,-40.773 -24.216,-70.293 -4.096,-12.42 -6.552,-22.228 -6.776,-29.393 C 6.914,-52.671 25.412,-20.559 24.444,-2.09 24.203,2.53 21.644,6.18 17.3,9.741 13.565,12.915 9.93,14.407 7.566,14.283 6.402,13.803 3.685,9.028 0,0" /></g><g
           transform="translate(841.6627,861.1472)"
           id="g54"><path
             id="path56"
             style="fill:#feebef;fill-opacity:1;fill-rule:nonzero;stroke:none"
             d="M 0,0 C 0.451,-0.417 0.901,-0.836 1.351,-1.257 0.901,-0.836 0.451,-0.417 0,0" /></g><g
           transform="translate(833.5563,868.4465)"
           id="g58"><path
             id="path60"
             style="fill:#feebef;fill-opacity:1;fill-rule:nonzero;stroke:none"
             d="M 0,0 V 0 L 0.009,-0.009 Z" /></g><g
           transform="translate(850.8629,852.3396)"
           id="g62"><path
             id="path64"
             style="fill:#feebef;fill-opacity:1;fill-rule:nonzero;stroke:none"
             d="M 0,0 C -0.007,0.007 -0.015,0.014 -0.021,0.021 -0.015,0.014 -0.008,0.007 -0.001,0 Z" /></g><g
           transform="translate(247.4537,648.3552)"
           id="g66"><path
             id="path68"
             style="fill:#feebef;fill-opacity:1;fill-rule:nonzero;stroke:none"
             d="M 0,0 C 0.002,0.014 0.004,0.028 0.006,0.042 0.004,0.028 0.002,0.014 0,0" /></g></g></g></g></svg>