<?xml version="1.0" encoding="UTF-8" standalone="no"?>
<svg
   xmlns:dc="http://purl.org/dc/elements/1.1/"
   xmlns:cc="http://creativecommons.org/ns#"
   xmlns:rdf="http://www.w3.org/1999/02/22-rdf-syntax-ns#"
   xmlns:svg="http://www.w3.org/2000/svg"
   xmlns="http://www.w3.org/2000/svg"
   viewBox="0 0 1600 1600"
   height="1600"
   width="1600"
   xml:space="preserve"
   id="svg2"
   version="1.1"><metadata
     id="metadata8"><rdf:RDF><cc:Work
         rdf:about=""><dc:format>image/svg+xml</dc:format><dc:type
           rdf:resource="http://purl.org/dc/dcmitype/StillImage" /></cc:Work></rdf:RDF></metadata><defs
     id="defs6"><clipPath
       id="clipPath18"
       clipPathUnits="userSpaceOnUse"><path
         id="path16"
         d="M 0,1200 H 1200 V 0 H 0 Z" /></clipPath></defs><g
     transform="matrix(1.3333333,0,0,-1.3333333,0,1600)"
     id="g10"><g
       id="g12"><g
         clip-path="url(#clipPath18)"
         id="g14"><g
           transform="translate(955.3398,600)"
           id="g20"><path
             id="path22"
             style="fill:#feebef;fill-opacity:1;fill-rule:nonzero;stroke:none"
             d="m 0,0 c 0,-196.249 -159.091,-355.34 -355.34,-355.34 -196.249,0 -355.34,159.091 -355.34,355.34 0,196.249 159.091,355.34 355.34,355.34 C -159.091,355.34 0,196.249 0,0" /></g><g
           transform="translate(759.1445,635.6089)"
           id="g24"><path
             id="path26"
             style="fill:#100f0d;fill-opacity:1;fill-rule:nonzero;stroke:none"
             d="m 0,0 c -6.526,-11.269 -11.381,-20.351 -15.735,-27.722 -3.768,-7.341 -6.527,-11.269 -6.505,-11.687 0.412,3.382 3.85,17.012 10.893,40.918 12.065,41.398 23.884,76.059 37.239,104.08 10.064,22.8 21.932,45.275 34.431,66.945 l 15.346,1.222 c 1.185,0.062 2.403,-0.712 3.088,-2.36 l -0.465,-2.542 C 77.836,166.307 77.445,162.503 76.48,158.25 75.516,153.998 73.941,150.132 72.933,146.714 66.714,129.58 53.369,101.564 33.488,62.274 29.156,54.48 23.748,44.532 17.818,33.294 11.881,22.057 5.929,11.237 0,0 m -56.66,-38.688 c -0.478,-2.129 -1.553,-4.288 -2.03,-6.412 -0.487,-2.129 -0.377,-4.222 -0.9,-5.511 -0.509,-1.706 -0.465,-2.546 -1.053,-2.577 -0.608,0.387 -0.608,0.387 -1.227,0.778 l -0.588,-0.031 c -4.837,1.846 -15.109,5.511 -30.807,10.995 -20.49,6.489 -33.893,13.355 -40.178,20.17 -4.404,4.814 -6.483,10.591 -6.834,17.298 -0.9,17.181 8.687,37.856 29.357,62.058 33.012,37.45 74.624,69.049 124.823,95.215 l -8.1,-15.134 C -20.682,89.278 -41.315,30.618 -56.66,-38.688 m 208.336,28.557 c -0.681,12.99 -9.435,21.778 -26.86,26.33 l -9.575,1.602 C 92.786,16.626 63.818,3.759 27.736,-20.402 L 19.729,-25.866 33.17,0.475 c 44.782,84.3 66.385,135.868 65.397,154.729 -0.241,4.609 -0.416,7.964 -1.157,10.867 -1.316,2.453 -2.632,4.907 -5.1,6.876 -5.036,5.619 -12.993,10.247 -23.233,13.494 11.534,17.413 19.301,27.491 22.148,29.738 0.052,0.072 0.095,0.133 0.147,0.204 -5.581,5.549 -11.345,10.914 -17.282,16.085 C 62.652,221.638 47.892,203.772 29.758,178.92 -12.565,160.733 -51.072,137.701 -85.751,109.411 -137.454,66.776 -162.237,30.594 -160.68,0.836 c 0.856,-16.345 12.176,-28.783 33.96,-37.309 5.456,-2.236 12.698,-4.799 22.948,-8.045 18.674,-5.747 32.6,-11.324 42.319,-15.856 l -1.724,-12.283 c -4.293,-19.975 -5.774,-36.866 -5.051,-50.696 0.505,-9.64 2.65,-16.676 6.391,-20.259 3.131,-3.2 10.925,-4.891 22.793,-5.112 l 2.369,0.124 c 1.772,0.093 4.109,0.634 6.977,2.469 6.267,4.949 11.1,14.449 13.942,28.047 0.812,7.185 1.145,12.248 0.97,15.598 -0.571,10.902 -5.216,20.324 -13.339,28.304 2.382,-0.294 4.197,-1.041 7.197,-1.727 2.434,-1.129 4.825,-1.427 7.782,-1.272 1.771,0.093 8.051,4.623 18.275,13.144 51.071,43.445 91.315,67.405 121.323,71.498 0.619,-0.391 1.206,-0.36 1.825,-0.747 0.61,-0.387 0.654,-1.227 1.904,-2.422 0.653,-1.228 0.762,-3.32 0.894,-5.836 0.593,-11.319 -4.464,-27.975 -15.779,-49.579 -43.317,-78.34 -103.893,-132.787 -183.49,-163.432 -25.557,-10.161 -44.846,-15.373 -56.661,-15.992 -3.553,-0.186 -5.934,0.108 -6.553,0.495 -0.631,0.809 -1.881,2.005 -2.534,3.232 -2.014,4.516 -3.905,6.52 -6.286,6.815 -0.596,-0.032 -1.75,-0.511 -2.912,-0.995 -1.14,-0.898 -2.281,-1.8 -2.825,-2.67 -0.521,-1.289 -1.074,-2.156 -1.03,-2.996 0.109,-2.093 2.609,-4.484 7.447,-6.334 7.294,-3.402 15.066,-4.675 22.75,-4.273 10.64,0.557 20.073,1.469 29.442,3.645 15.811,3.768 32.687,9.696 51.844,17.423 19.18,7.305 35.947,15.331 49.744,23.616 35.064,20.748 66.72,50.145 95.004,87.352 29.248,41.456 43.602,72.889 42.44,95.106" /></g><g
           transform="translate(593.9678,495.835)"
           id="g28"><path
             id="path30"
             style="fill:#100f0d;fill-opacity:1;fill-rule:nonzero;stroke:none"
             d="m 0,0 c -0.044,0.836 -0.653,1.227 -1.881,2 -2.501,2.392 -11.544,5.278 -15.088,5.093 -2.956,-0.155 -4.574,-3.181 -4.223,-9.887 0.395,-7.542 2.929,-10.773 9.636,-14.206 3.022,-1.103 5.447,-2.237 6.044,-2.206 1.772,0.093 2.205,3.061 1.987,7.252 -0.111,2.094 0.898,5.511 1.951,8.088 C -0.478,-2.128 0.044,-0.84 0,0" /></g><g
           transform="translate(358.6016,473.8447)"
           id="g32"><path
             id="path34"
             style="fill:#100f0d;fill-opacity:1;fill-rule:nonzero;stroke:none"
             d="m 0,0 c 9.126,29.479 16.81,52.578 24.182,70.196 3.679,9.017 6.394,13.784 7.556,14.264 2.36,0.124 5.991,-1.366 9.72,-4.536 4.337,-3.556 6.895,-7.201 7.136,-11.815 C 49.559,49.666 31.087,17.599 -6.767,-29.352 -6.543,-22.196 -4.092,-12.402 0,0 m -45.225,93.881 c 30.078,14.182 48.082,21.43 53.995,21.739 L 7.229,110.918 C 3.028,100.609 -0.208,94.558 -2.533,93.594 Z m 106.504,60.214 c 1.584,3.862 3.724,8.181 6.395,13.784 2.693,5.181 6.438,12.944 12.389,23.764 24.955,44.176 51.357,83.383 79.772,118.07 5.008,6.149 7.811,9.237 8.995,9.299 0.587,0.031 0.609,-0.387 0.675,-1.644 0.373,-7.129 -3.082,-31.686 -10.932,-74.125 l -10.814,-65.29 c 0.088,-1.675 -0.302,-5.479 -1.157,-11.829 -0.369,-4.222 -1.443,-6.382 -2.031,-6.413 -1.162,-0.48 -2.346,-0.541 -4.118,-0.634 -6.509,-0.341 -24.767,-2.557 -55.349,-7.099 -15.868,-2.511 -24.67,-4.233 -26.429,-4.744 l -0.61,0.387 c -0.022,0.418 1.052,2.577 3.214,6.474 M 13.075,-45.965 c 10.136,10.196 23.376,28.96 40.914,56.358 14.184,23.438 21.034,39.769 20.551,48.991 -0.394,7.541 -2.474,13.319 -6.855,17.711 -4.382,4.396 -12.872,8.154 -25.504,11.695 -5.412,1.397 -8.412,2.082 -8.456,2.918 l 6.262,16.299 8.991,20.644 c 43.924,10.286 74.441,16.085 92.177,17.014 l 2.36,0.123 0.021,-0.418 C 128.026,34.023 120.984,-35.276 122.41,-62.519 c 0.549,-10.479 2.04,-16.284 3.878,-17.449 1.859,-1.582 5.5,-3.076 10.316,-4.505 1.793,-0.324 3,-0.679 3.586,-0.649 1.185,0.061 1.751,0.511 1.729,0.928 -0.719,2.485 -1.526,6.645 -1.812,12.093 -1.052,20.12 1.477,50.933 8.196,92.475 12.76,84.724 20.61,127.162 24.706,128.219 l 6.5,0.34 c 14.846,-0.484 24.345,-0.825 27.942,-1.478 4.176,-0.624 9.61,-2.438 15.697,-5.485 1.816,-0.742 2.425,-1.134 3.023,-1.102 l 0.543,0.87 c -0.329,6.289 -4.733,11.098 -12.592,14.052 -7.838,2.53 -21.565,4.334 -40.564,5.02 6.757,29.356 12.427,56.97 18.155,83.325 4.183,22.078 6.24,39.414 5.582,51.991 -0.308,5.866 -1.137,10.448 -1.952,14.608 -1.514,6.226 -5.364,11.907 -11.518,16.206 -3.088,2.361 -4.36,3.975 -4.382,4.397 0.553,0.867 2.781,3.505 6.724,7.495 11.819,11.965 20.248,20.815 24.17,25.223 15.893,13.439 24.433,20.192 25.607,20.253 l 2.369,0.124 c 0.587,0.03 1.14,0.902 1.64,2.608 -0.065,1.258 -0.697,2.063 -1.925,2.84 -1.228,0.778 -3.044,1.521 -4.86,2.268 -1.793,0.325 -3.587,0.65 -5.39,0.979 -6.477,-0.762 -16.31,-5.479 -28.849,-14.959 -12.548,-9.485 -24.455,-19.774 -35.709,-31.29 -5.671,-4.918 -9.083,-7.619 -10.855,-7.711 l -1.794,0.324 C 122.782,338.037 73.025,314.84 2.489,269.539 c -45.607,-29.369 -83.04,-58.309 -111.865,-86.43 -1.852,-11.489 -3.148,-23.162 -3.87,-34.992 10.896,13.549 25.681,28.53 44.454,44.981 40.217,35.728 88.272,68.921 144.165,99.587 25.327,14.357 46.169,23.852 62.523,28.491 -15.762,-15.954 -36.844,-43.537 -63.268,-82.327 -20.2,-33 -39.182,-66.775 -55.729,-101.682 C -34.041,118 -60.575,104.005 -61.29,95.139 l -0.465,-2.542 C -71.232,92.52 -83.057,91.9 -97.24,91.158 c -5.761,-0.302 -10.722,-0.456 -14.945,-0.456 0.244,-2.455 0.524,-4.898 0.817,-7.339 11.838,-0.837 25.763,-0.842 41.803,-0.003 l 65.655,2.594 c -25.239,-61.419 -36.707,-102.79 -35.632,-123.327 0.417,-7.964 2.461,-12.901 6.114,-14.81 6.066,-2.623 15.066,-4.673 26.947,-5.313 5.912,0.309 12.246,4.001 19.556,11.531" /></g></g></g></g></svg>