<?xml version="1.0" encoding="UTF-8" standalone="no"?>
<svg
   xmlns:dc="http://purl.org/dc/elements/1.1/"
   xmlns:cc="http://creativecommons.org/ns#"
   xmlns:rdf="http://www.w3.org/1999/02/22-rdf-syntax-ns#"
   xmlns:svg="http://www.w3.org/2000/svg"
   xmlns="http://www.w3.org/2000/svg"
   viewBox="0 0 1600 1600"
   height="1600"
   width="1600"
   xml:space="preserve"
   id="svg2"
   version="1.1"><metadata
     id="metadata8"><rdf:RDF><cc:Work
         rdf:about=""><dc:format>image/svg+xml</dc:format><dc:type
           rdf:resource="http://purl.org/dc/dcmitype/StillImage" /></cc:Work></rdf:RDF></metadata><defs
     id="defs6"><clipPath
       id="clipPath18"
       clipPathUnits="userSpaceOnUse"><path
         id="path16"
         d="M 0,1200 H 1200 V 0 H 0 Z" /></clipPath></defs><g
     transform="matrix(1.3333333,0,0,-1.3333333,0,1600)"
     id="g10"><g
       id="g12"><g
         clip-path="url(#clipPath18)"
         id="g14"><g
           transform="translate(149.5293,424.1611)"
           id="g20"><path
             id="path22"
             style="fill:#100f0d;fill-opacity:1;fill-rule:nonzero;stroke:none"
             d="M 0,0 H 16.328 L 8.387,17.664 Z M 17.59,-2.82 H -1.336 l -7.199,-15.289 c -1.559,-3.266 0.371,-5.938 4.379,-5.938 v -0.148 h -16.106 v 0.148 c 2.895,0 6.383,2.227 8.61,6.977 l 21.3,45.125 H 9.797 L 30.504,-17.59 c 1.93,-4.23 5.121,-6.457 8.906,-6.457 v -0.148 H 19.965 v 0.148 c 4.601,0 6.234,2.301 4.972,5.121 z" /></g><g
           transform="translate(214.8232,451.7705)"
           id="g24"><path
             id="path26"
             style="fill:#100f0d;fill-opacity:1;fill-rule:nonzero;stroke:none"
             d="M 0,0 C -2.301,0 -4.156,-1.855 -4.156,-4.156 V -47.5 c 0,-2.301 1.855,-4.156 4.156,-4.156 v -0.149 h -13.953 v 0.149 c 2.301,0 4.156,1.855 4.156,4.156 V -4.156 C -9.797,-1.855 -11.652,0 -13.953,0 V 0.148 L 0,0.148 Z" /></g><g
           transform="translate(256.9609,440.3408)"
           id="g28"><path
             id="path30"
             style="fill:#100f0d;fill-opacity:1;fill-rule:nonzero;stroke:none"
             d="m 0,0 c -1.113,2.598 -8.98,8.758 -15.363,8.758 -4.528,0 -7.571,-3.117 -7.571,-6.828 0,-10.614 24.344,-14.176 24.344,-29.094 0,-7.348 -5.863,-13.508 -14.695,-13.508 -6.457,0 -10.613,3.34 -14.176,2.82 l -2.746,10.836 h 0.297 c 0.594,-2.3 7.644,-10.539 16.105,-10.539 5.938,0 9.575,4.082 9.575,8.981 0,12.617 -23.899,15.437 -23.899,29.168 0,6.754 5.863,11.281 12.988,11.281 4.899,0 7.719,-2.152 11.356,-2.449 L 0.223,0 Z" /></g><g
           transform="translate(315.5752,444.126)"
           id="g32"><path
             id="path34"
             style="fill:#100f0d;fill-opacity:1;fill-rule:nonzero;stroke:none"
             d="m 0,0 c -0.297,2.746 -2.598,4.973 -5.121,4.973 h -14.621 v -44.828 c 0,-2.301 1.855,-4.157 4.156,-4.157 v -0.148 h -13.953 v 0.148 c 2.301,0 4.156,1.856 4.156,4.157 V 4.973 h -14.621 c -2.523,0 -4.824,-2.227 -5.121,-4.973 h -0.148 l 0.519,7.793 H -0.371 L 0.148,0 Z" /></g><g
           transform="translate(349.9941,462.1611)"
           id="g36"><path
             id="path38"
             style="fill:#100f0d;fill-opacity:1;fill-rule:nonzero;stroke:none"
             d="m 0,0 c 0,-2.078 -1.633,-3.711 -3.711,-3.711 -2.078,0 -3.711,1.633 -3.711,3.711 0,2.078 1.633,3.711 3.711,3.711 C -1.633,3.711 0,2.078 0,0 m 9.055,-10.242 0.519,-7.942 H 9.426 c -0.371,2.895 -2.227,4.825 -5.121,4.825 H -12.543 V -34.141 H 2.375 c 2.375,0 4.305,1.93 4.305,4.305 H 6.828 V -41.563 H 6.68 c 0,2.375 -1.93,4.305 -4.305,4.305 H -12.543 V -54.18 c 0,-2.672 2.227,-4.898 4.898,-4.898 H 5.641 c 4.156,0 8.164,3.562 8.98,8.238 H 14.77 L 13.211,-62.195 H -22.34 v 0.148 c 2.301,0 4.156,1.856 4.156,4.156 v 43.344 c 0,2.301 -1.855,4.156 -4.156,4.156 v 0.149 z" /></g><g
           transform="translate(420.5752,403.083)"
           id="g40"><path
             id="path42"
             style="fill:#100f0d;fill-opacity:1;fill-rule:nonzero;stroke:none"
             d="m 0,0 h 8.016 c 6.679,0 11.949,4.008 11.949,10.91 0,6.606 -4.75,11.652 -11.504,11.652 l -8.461,0 z m 0,25.531 h 4.602 c 6.605,0 10.984,3.563 10.984,10.02 0,6.308 -4.156,10.168 -10.168,10.168 H 0 Z m 7.867,23.305 c 8.684,0 13.656,-5.27 13.656,-12.469 0,-5.492 -2.82,-9.277 -6.753,-11.43 C 21.523,23.23 25.902,17.887 25.902,11.281 25.902,2.449 18.258,-3.117 9.5,-3.117 H -9.797 v 0.148 c 2.301,0 4.156,1.856 4.156,4.156 v 43.344 c 0,2.301 -1.855,4.157 -4.156,4.157 v 0.148 z" /></g><g
           transform="translate(472.6768,424.1611)"
           id="g44"><path
             id="path46"
             style="fill:#100f0d;fill-opacity:1;fill-rule:nonzero;stroke:none"
             d="M 0,0 H 16.328 L 8.387,17.664 Z M 17.59,-2.82 H -1.336 l -7.199,-15.289 c -1.559,-3.266 0.371,-5.938 4.379,-5.938 v -0.148 h -16.106 v 0.148 c 2.895,0 6.383,2.227 8.61,6.977 l 21.3,45.125 H 9.797 L 30.504,-17.59 c 1.93,-4.23 5.121,-6.457 8.906,-6.457 v -0.148 H 19.965 v 0.148 c 4.601,0 6.234,2.301 4.972,5.121 z" /></g><g
           transform="translate(530.7158,448.8018)"
           id="g48"><path
             id="path50"
             style="fill:#100f0d;fill-opacity:1;fill-rule:nonzero;stroke:none"
             d="m 0,0 v -21.969 h 6.902 c 5.715,0 10.391,4.899 10.391,10.985 C 17.293,-4.898 12.617,0 6.902,0 Z m 0,3.117 h 8.832 c 7.867,0 14.398,-6.308 14.398,-14.101 0,-6.086 -4.007,-11.356 -9.5,-13.286 5.567,-8.609 14.844,-19.816 26.942,-24.418 v -0.148 c -2.524,0 -4.305,0.074 -5.418,0.223 -11.356,1.336 -21.672,13.582 -27.609,23.527 H 0 v -19.445 c 0,-2.301 1.855,-4.157 4.156,-4.157 v -0.148 H -9.797 v 0.148 c 2.301,0 4.156,1.856 4.156,4.157 v 43.344 c 0,2.3 -1.855,4.156 -4.156,4.156 v 0.148 z" /></g><g
           transform="translate(614.6582,444.126)"
           id="g52"><path
             id="path54"
             style="fill:#100f0d;fill-opacity:1;fill-rule:nonzero;stroke:none"
             d="m 0,0 c -0.297,2.746 -2.598,4.973 -5.121,4.973 h -14.621 v -44.828 c 0,-2.301 1.855,-4.157 4.156,-4.157 v -0.148 h -13.953 v 0.148 c 2.301,0 4.156,1.856 4.156,4.157 V 4.973 h -14.621 c -2.523,0 -4.824,-2.227 -5.121,-4.973 h -0.148 l 0.519,7.793 H -0.371 L 0.148,0 Z" /></g><g
           transform="translate(638.4824,451.7705)"
           id="g56"><path
             id="path58"
             style="fill:#100f0d;fill-opacity:1;fill-rule:nonzero;stroke:none"
             d="M 0,0 C -2.301,0 -4.156,-1.855 -4.156,-4.156 V -24.492 L 17.738,-5.566 C 21.301,-2.523 21.449,0 18.109,0 V 0.148 H 35.848 V 0 C 31.543,0 26.199,-2.078 20.559,-6.977 l -19,-16.328 27.386,-23.156 c 3.489,-2.894 7.719,-5.195 12.098,-5.195 v -0.149 H 20.855 v 0.149 c 2.969,0 3.563,1.484 1.411,3.34 l -25.012,21.226 -1.41,-1.262 V -47.5 c 0,-2.301 1.855,-4.156 4.156,-4.156 v -0.149 h -13.953 v 0.149 c 2.301,0 4.156,1.855 4.156,4.156 V -4.156 C -9.797,-1.855 -11.652,0 -13.953,0 V 0.148 L 0,0.148 Z" /></g><g
           transform="translate(720.0488,451.9189)"
           id="g60"><path
             id="path62"
             style="fill:#100f0d;fill-opacity:1;fill-rule:nonzero;stroke:none"
             d="M 0,0 0.52,-7.941 H 0.371 C 0,-5.047 -1.855,-3.117 -4.75,-3.117 H -21.598 V -23.898 H -6.68 c 2.375,0 4.305,1.929 4.305,4.304 h 0.148 V -31.32 h -0.148 c 0,2.375 -1.93,4.304 -4.305,4.304 h -14.918 v -16.922 c 0,-2.671 2.227,-4.898 4.899,-4.898 h 13.285 c 4.156,0 8.164,3.563 8.98,8.238 H 5.715 L 4.156,-51.953 h -35.551 v 0.148 c 2.301,0 4.157,1.856 4.157,4.157 v 43.343 c 0,2.301 -1.856,4.157 -4.157,4.157 V 0 Z" /></g><g
           transform="translate(780.3145,447.6885)"
           id="g64"><path
             id="path66"
             style="fill:#100f0d;fill-opacity:1;fill-rule:nonzero;stroke:none"
             d="M 0,0 C 1.039,2.301 -0.445,4.082 -3.191,4.082 V 4.23 H 10.762 V 4.082 c -3.34,0 -6.235,-1.93 -7.422,-4.527 L -18.852,-48.02 H -19 l -21.82,46.758 c -1.559,3.34 -4.825,5.344 -8.313,5.344 V 4.23 h 18.406 V 4.082 c -3.339,0 -4.972,-2.449 -3.933,-4.75 l 17.144,-36.887 z" /></g><g
           transform="translate(818.3145,451.7705)"
           id="g68"><path
             id="path70"
             style="fill:#100f0d;fill-opacity:1;fill-rule:nonzero;stroke:none"
             d="M 0,0 C -2.301,0 -4.156,-1.855 -4.156,-4.156 V -47.5 c 0,-2.301 1.855,-4.156 4.156,-4.156 v -0.149 h -13.953 v 0.149 c 2.301,0 4.156,1.855 4.156,4.156 V -4.156 C -9.797,-1.855 -11.652,0 -13.953,0 V 0.148 L 0,0.148 Z" /></g><g
           transform="translate(859.4316,453.5518)"
           id="g72"><path
             id="path74"
             style="fill:#100f0d;fill-opacity:1;fill-rule:nonzero;stroke:none"
             d="M 0,0 -8.98,10.836 -8.758,11.059 1.855,4.305 12.469,11.059 12.691,10.836 3.711,0 Z m 19.742,-48.836 c -3.562,-2.227 -10.539,-5.047 -18.703,-5.047 -17.144,0 -27.684,12.395 -27.684,25.828 0,13.805 11.133,26.719 28.797,26.719 6.903,0 9.871,-2.004 15.438,-2.969 l 1.187,-11.207 h -0.148 c -0.668,4.676 -7.125,11.059 -16.848,11.059 -12.097,0 -22.191,-9.945 -22.191,-23.082 0,-12.469 8.98,-23.231 22.34,-23.231 10.019,0 18.629,6.161 19.742,14.473 h 0.148 z" /></g><g
           transform="translate(908.7129,451.7705)"
           id="g76"><path
             id="path78"
             style="fill:#100f0d;fill-opacity:1;fill-rule:nonzero;stroke:none"
             d="M 0,0 C -2.301,0 -4.156,-1.855 -4.156,-4.156 V -47.5 c 0,-2.301 1.855,-4.156 4.156,-4.156 v -0.149 h -13.953 v 0.149 c 2.301,0 4.156,1.855 4.156,4.156 V -4.156 C -9.797,-1.855 -11.652,0 -13.953,0 V 0.148 L 0,0.148 Z" /></g><g
           transform="translate(952.5762,451.9189)"
           id="g80"><path
             id="path82"
             style="fill:#100f0d;fill-opacity:1;fill-rule:nonzero;stroke:none"
             d="M 0,0 0.52,-7.941 H 0.371 C 0,-5.047 -1.855,-3.117 -4.75,-3.117 H -21.598 V -23.898 H -6.68 c 2.375,0 4.305,1.929 4.305,4.304 h 0.148 V -31.32 h -0.148 c 0,2.375 -1.93,4.304 -4.305,4.304 h -14.918 v -16.922 c 0,-2.671 2.227,-4.898 4.899,-4.898 h 13.285 c 4.156,0 8.164,3.563 8.98,8.238 H 5.715 L 4.156,-51.953 h -35.551 v 0.148 c 2.301,0 4.157,1.856 4.157,4.157 v 43.343 c 0,2.301 -1.856,4.157 -4.157,4.157 V 0 Z" /></g><g
           transform="translate(977.8105,404.2705)"
           id="g84"><path
             id="path86"
             style="fill:#100f0d;fill-opacity:1;fill-rule:nonzero;stroke:none"
             d="M 0,0 C 0,-2.301 1.855,-4.156 4.156,-4.156 V -4.305 H -7.273 v 0.149 c 2.3,0 4.156,1.855 4.156,4.156 v 39.781 c 0,4.231 -3.488,7.719 -7.719,7.719 v 0.148 H 1.41 L 37.184,7.422 v 35.922 c 0,2.301 -1.856,4.156 -4.157,4.156 v 0.148 h 11.43 V 47.5 c -2.301,0 -4.156,-1.855 -4.156,-4.156 V -4.305 H 40.152 L 0,40.82 Z" /></g><g
           transform="translate(1055.9629,462.1611)"
           id="g88"><path
             id="path90"
             style="fill:#100f0d;fill-opacity:1;fill-rule:nonzero;stroke:none"
             d="m 0,0 c 0,-2.078 -1.633,-3.711 -3.711,-3.711 -2.078,0 -3.711,1.633 -3.711,3.711 0,2.078 1.633,3.711 3.711,3.711 C -1.633,3.711 0,2.078 0,0 m 9.055,-10.242 0.519,-7.942 H 9.426 c -0.371,2.895 -2.227,4.825 -5.121,4.825 H -12.543 V -34.141 H 2.375 c 2.375,0 4.305,1.93 4.305,4.305 H 6.828 V -41.563 H 6.68 c 0,2.375 -1.93,4.305 -4.305,4.305 H -12.543 V -54.18 c 0,-2.672 2.227,-4.898 4.898,-4.898 H 5.641 c 4.156,0 8.164,3.562 8.98,8.238 H 14.77 L 13.211,-62.195 H -22.34 v 0.148 c 2.301,0 4.156,1.856 4.156,4.156 v 43.344 c 0,2.301 -1.855,4.156 -4.156,4.156 v 0.149 z" /></g><g
           transform="translate(677.1055,711.0972)"
           id="g92"><path
             id="path94"
             style="fill:#100f0d;fill-opacity:1;fill-rule:nonzero;stroke:none"
             d="m 0,0 c -5.565,-11.676 -10.49,-26.12 -15.518,-43.37 -2.934,-9.963 -4.367,-15.642 -4.539,-17.051 -0.008,0.174 1.141,1.811 2.71,4.87 1.816,3.072 3.838,6.856 6.558,11.552 2.471,4.683 4.95,9.191 7.425,13.874 2.47,4.683 4.724,8.828 6.53,12.076 8.284,16.372 13.845,28.046 16.437,35.186 0.419,1.425 1.076,3.035 1.478,4.807 0.401,1.773 0.565,3.358 0.754,4.419 l 0.194,1.059 c -0.285,0.687 -0.793,1.01 -1.287,0.984 l -6.394,-0.51 C 9.14,18.866 4.194,9.501 0,0" /></g><g
           transform="translate(672.1094,730.9766)"
           id="g96"><path
             id="path98"
             style="fill:#100f0d;fill-opacity:1;fill-rule:nonzero;stroke:none"
             d="m 0,0 c -20.918,-10.903 -38.258,-24.071 -52.014,-39.676 -8.613,-10.085 -12.608,-18.701 -12.233,-25.86 0.146,-2.795 1.013,-5.203 2.848,-7.209 2.619,-2.839 8.204,-5.7 16.743,-8.404 6.541,-2.286 10.821,-3.813 12.837,-4.582 l 0.244,0.013 c 0.259,-0.163 0.259,-0.163 0.513,-0.324 0.244,0.013 0.225,0.363 0.438,1.074 0.217,0.537 0.172,1.409 0.374,2.296 0.199,0.885 0.647,1.785 0.847,2.672 6.393,28.88 14.992,53.324 26.028,73.693 z" /></g><g
           transform="translate(701.125,760.4077)"
           id="g100"><path
             id="path102"
             style="fill:#100f0d;fill-opacity:1;fill-rule:nonzero;stroke:none"
             d="M 0,0 C 1.101,-1.029 2.188,-2.071 3.258,-3.133 2.188,-2.071 1.101,-1.029 0,0" /></g><g
           transform="translate(502.4209,645.9102)"
           id="g104"><path
             id="path106"
             style="fill:#100f0d;fill-opacity:1;fill-rule:nonzero;stroke:none"
             d="M 0,0 0.642,1.959 C -1.822,1.831 -9.324,-1.19 -21.857,-7.099 l 17.789,-0.12 C -3.1,-6.817 -1.751,-4.296 0,0" /></g><g
           transform="translate(697.1934,763.9644)"
           id="g108"><path
             id="path110"
             style="fill:#100f0d;fill-opacity:1;fill-rule:nonzero;stroke:none"
             d="M 0,0 C 1.141,-0.993 2.261,-2.007 3.37,-3.034 2.261,-2.007 1.141,-0.993 0,0" /></g><g
           transform="translate(596.8301,607.2427)"
           id="g112"><path
             id="path114"
             style="fill:#100f0d;fill-opacity:1;fill-rule:nonzero;stroke:none"
             d="m 0,0 c -0.438,-1.074 -0.858,-2.498 -0.812,-3.37 0.09,-1.747 -0.09,-2.984 -0.829,-3.022 -0.249,-0.013 -1.258,0.459 -2.518,0.919 -2.795,1.431 -3.851,2.777 -4.016,5.92 -0.145,2.794 0.529,4.055 1.76,4.12 C -4.937,4.644 -1.17,3.441 -0.128,2.444 0.384,2.122 0.638,1.959 0.656,1.611 0.675,1.261 0.457,0.724 0,0 m 107.562,150.023 c -0.022,-0.03 -0.041,-0.055 -0.062,-0.085 -1.187,-0.937 -4.423,-5.136 -9.229,-12.392 4.267,-1.353 7.583,-3.281 9.681,-5.623 1.028,-0.82 1.577,-1.843 2.125,-2.865 0.309,-1.21 0.382,-2.608 0.483,-4.528 0.411,-7.86 -8.591,-29.348 -27.251,-64.477 l -5.602,-10.976 3.337,2.277 c 15.035,10.068 27.106,15.429 36.464,15.919 l 3.99,-0.668 c 7.261,-1.896 10.908,-5.559 11.191,-10.972 0.486,-9.257 -5.496,-22.356 -17.684,-39.63 -11.785,-15.504 -24.977,-27.754 -39.588,-36.4 -5.75,-3.452 -12.736,-6.797 -20.729,-9.841 -7.983,-3.22 -15.015,-5.69 -21.604,-7.261 -3.903,-0.906 -7.834,-1.287 -12.269,-1.518 -3.201,-0.168 -6.44,0.362 -9.479,1.78 -2.016,0.771 -3.058,1.768 -3.104,2.64 -0.017,0.349 0.212,0.711 0.43,1.248 0.227,0.363 0.702,0.738 1.177,1.112 0.484,0.202 0.965,0.403 1.214,0.415 0.992,-0.123 1.78,-0.958 2.619,-2.84 0.272,-0.51 0.793,-1.009 1.056,-1.346 0.257,-0.161 1.25,-0.284 2.73,-0.206 4.924,0.257 12.962,2.429 23.611,6.664 33.168,12.769 58.411,35.457 76.461,68.103 4.715,9.002 6.823,15.942 6.575,20.659 -0.054,1.048 -0.1,1.92 -0.373,2.432 -0.52,0.498 -0.539,0.848 -0.793,1.009 -0.257,0.161 -0.501,0.148 -0.76,0.311 -12.504,-1.705 -29.274,-11.69 -50.556,-29.793 -4.26,-3.551 -6.877,-5.439 -7.615,-5.478 -1.232,-0.064 -2.229,0.06 -3.242,0.531 -1.25,0.285 -2.007,0.597 -2.999,0.719 3.384,-3.325 5.32,-7.251 5.557,-11.794 0.073,-1.396 -0.065,-3.505 -0.403,-6.5 -1.185,-5.666 -3.198,-9.625 -5.81,-11.688 -1.195,-0.764 -2.17,-0.989 -2.908,-1.028 l -0.986,-0.052 c -4.946,0.093 -8.194,0.797 -9.498,2.131 -1.56,1.493 -2.453,4.425 -2.663,8.442 -0.302,5.762 0.315,12.801 2.104,21.125 l 0.718,5.118 c -4.05,1.888 -9.853,4.213 -17.634,6.607 -4.271,1.353 -7.289,2.421 -9.562,3.353 -9.078,3.552 -13.795,8.736 -14.152,15.547 -0.649,12.4 9.679,27.477 31.224,45.243 14.45,11.789 30.496,21.386 48.133,28.965 7.555,10.356 13.707,17.801 18.472,22.314 -26.007,22.646 -59.996,36.362 -97.189,36.362 -74.945,0 -136.876,-55.682 -146.702,-127.931 0.163,1.202 0.341,2.4 0.533,3.593 12.012,11.718 27.61,23.777 46.614,36.016 29.394,18.877 50.127,28.543 61.707,29.149 l 0.747,-0.135 c 0.739,0.038 2.16,1.164 4.524,3.213 4.689,4.799 9.651,9.086 14.88,13.039 5.224,3.95 9.322,5.916 12.021,6.233 0.752,-0.137 1.499,-0.272 2.246,-0.408 0.757,-0.311 1.514,-0.621 2.026,-0.945 0.511,-0.324 0.774,-0.659 0.801,-1.183 -0.208,-0.711 -0.438,-1.074 -0.682,-1.087 L 0.897,152.59 c -0.489,-0.026 -4.047,-2.84 -10.67,-8.44 -1.634,-1.836 -5.147,-5.524 -10.073,-10.51 -1.642,-1.662 -2.571,-2.762 -2.801,-3.123 0.009,-0.176 0.54,-0.849 1.826,-1.832 2.564,-1.791 4.169,-4.159 4.8,-6.753 0.339,-1.734 0.685,-3.643 0.813,-6.088 0.274,-5.24 -0.583,-12.465 -2.326,-21.664 -2.387,-10.983 -4.75,-22.49 -7.566,-34.722 7.917,-0.286 13.638,-1.038 16.904,-2.092 3.275,-1.231 5.11,-3.235 5.247,-5.856 l -0.227,-0.363 c -0.248,-0.012 -0.503,0.151 -1.259,0.46 -2.537,1.269 -4.801,2.026 -6.541,2.286 -1.499,0.272 -5.457,0.414 -11.643,0.616 l -2.709,-0.142 c -1.707,-0.441 -4.978,-18.125 -10.295,-53.43 -2.8,-17.31 -3.854,-30.15 -3.415,-38.534 0.119,-2.271 0.455,-4.004 0.755,-5.039 0.009,-0.174 -0.227,-0.362 -0.721,-0.387 -0.244,-0.013 -0.747,0.136 -1.494,0.271 -2.007,0.594 -3.524,1.217 -4.299,1.877 -0.766,0.485 -1.388,2.904 -1.616,7.271 -0.594,11.352 2.341,40.229 8.804,86.628 l -0.01,0.174 -0.983,-0.052 c -7.39,-0.386 -20.107,-2.803 -38.411,-7.089 l -3.746,-8.602 -2.609,-6.792 c 0.017,-0.349 1.268,-0.634 3.523,-1.216 5.264,-1.476 8.802,-3.042 10.628,-4.874 1.825,-1.83 2.692,-4.238 2.857,-7.38 0.201,-3.843 -2.654,-10.648 -8.564,-20.415 -7.308,-11.416 -12.826,-19.236 -17.049,-23.484 -3.047,-3.138 -5.686,-4.676 -8.149,-4.805 -4.951,0.266 -8.701,1.121 -11.23,2.214 -1.521,0.795 -2.374,2.852 -2.547,6.172 -0.448,8.557 4.331,25.796 14.848,51.39 l -27.359,-1.081 c -6.684,-0.35 -12.486,-0.347 -17.419,0.002 -0.122,1.016 -0.239,2.035 -0.341,3.058 1.76,0 3.827,0.064 6.228,0.19 5.91,0.309 10.838,0.567 14.787,0.599 l 0.194,1.059 c 0.297,3.695 11.355,9.527 33.415,17.513 6.895,14.547 14.805,28.621 23.222,42.372 11.011,16.164 19.796,27.658 26.364,34.306 -6.814,-1.933 -15.499,-5.89 -26.054,-11.872 -23.29,-12.779 -43.315,-26.611 -60.074,-41.499 -7.822,-6.855 -13.983,-13.098 -18.523,-18.744 0.224,3.696 0.585,7.354 1.076,10.971 -0.895,-6.581 -1.366,-13.296 -1.366,-20.122 0,-81.777 66.294,-148.071 148.071,-148.071 81.777,0 148.071,66.294 148.071,148.071 0,41.045 -16.703,78.186 -43.679,105.006" /></g><g
           transform="translate(527.6084,669.646)"
           id="g116"><path
             id="path118"
             style="fill:#100f0d;fill-opacity:1;fill-rule:nonzero;stroke:none"
             d="m 0,0 c -1.113,-2.335 -2.005,-4.135 -2.665,-5.744 -0.9,-1.624 -1.349,-2.524 -1.339,-2.697 l 0.254,-0.162 c 0.732,0.213 4.401,0.931 11.013,1.977 12.744,1.893 20.352,2.816 23.064,2.958 0.738,0.039 1.233,0.064 1.717,0.265 0.244,0.012 0.692,0.912 0.846,2.672 0.356,2.646 0.518,4.231 0.482,4.929 l 4.506,27.207 c 3.271,17.684 4.711,27.917 4.556,30.887 -0.028,0.524 -0.038,0.699 -0.282,0.686 C 41.658,62.952 40.491,61.665 38.404,59.103 26.563,44.649 15.562,28.311 5.163,9.902 2.683,5.394 1.122,2.159 0,0" /></g><g
           transform="translate(509.4854,628.9414)"
           id="g120"><path
             id="path122"
             style="fill:#100f0d;fill-opacity:1;fill-rule:nonzero;stroke:none"
             d="m 0,0 c -3.072,-7.342 -6.274,-16.967 -10.077,-29.251 -1.705,-5.168 -2.727,-9.249 -2.819,-12.231 C 2.877,-21.917 10.574,-8.555 10.172,-0.87 10.071,1.053 9.006,2.572 7.198,4.054 5.645,5.375 4.132,5.995 3.148,5.944 2.664,5.744 1.533,3.757 0,0" /></g><g
           transform="translate(700.5635,760.9307)"
           id="g124"><path
             id="path126"
             style="fill:#100f0d;fill-opacity:1;fill-rule:nonzero;stroke:none"
             d="M 0,0 C 0.187,-0.174 0.375,-0.348 0.562,-0.523 0.375,-0.348 0.187,-0.174 0,0" /></g><g
           transform="translate(697.1895,763.9683)"
           id="g128"><path
             id="path130"
             style="fill:#100f0d;fill-opacity:1;fill-rule:nonzero;stroke:none"
             d="M 0,0 V 0 C 0.002,-0.001 0.003,-0.002 0.004,-0.004 0.003,-0.002 0.001,-0.001 0,0" /></g><g
           transform="translate(704.3916,757.2656)"
           id="g132"><path
             id="path134"
             style="fill:#100f0d;fill-opacity:1;fill-rule:nonzero;stroke:none"
             d="M 0,0 -0.009,0.009 Z" /></g><g
           transform="translate(453.2949,672.3818)"
           id="g136"><path
             id="path138"
             style="fill:#100f0d;fill-opacity:1;fill-rule:nonzero;stroke:none"
             d="M 0,0 0.003,0.018 Z" /></g></g></g></g></svg>