<?xml version="1.0" encoding="UTF-8" standalone="no"?>
<svg
   xmlns:dc="http://purl.org/dc/elements/1.1/"
   xmlns:cc="http://creativecommons.org/ns#"
   xmlns:rdf="http://www.w3.org/1999/02/22-rdf-syntax-ns#"
   xmlns:svg="http://www.w3.org/2000/svg"
   xmlns="http://www.w3.org/2000/svg"
   viewBox="0 0 1600 1600"
   height="1600"
   width="1600"
   xml:space="preserve"
   id="svg2"
   version="1.1"><metadata
     id="metadata8"><rdf:RDF><cc:Work
         rdf:about=""><dc:format>image/svg+xml</dc:format><dc:type
           rdf:resource="http://purl.org/dc/dcmitype/StillImage" /></cc:Work></rdf:RDF></metadata><defs
     id="defs6"><clipPath
       id="clipPath20"
       clipPathUnits="userSpaceOnUse"><path
         id="path18"
         d="M 0,1200 H 1200 V 0 H 0 Z" /></clipPath></defs><g
     transform="matrix(1.3333333,0,0,-1.3333333,0,1600)"
     id="g10"><path
       id="path12"
       style="fill:#100f0d;fill-opacity:1;fill-rule:nonzero;stroke:none"
       d="M 0,0 H 1200 V 1200 H 0 Z" /><g
       id="g14"><g
         clip-path="url(#clipPath20)"
         id="g16"><g
           transform="translate(785.291,741.3931)"
           id="g22"><path
             id="path24"
             style="fill:#ffffff;fill-opacity:1;fill-rule:nonzero;stroke:none"
             d="m 0,0 c -13.372,-28.06 -25.208,-62.769 -37.289,-104.224 -7.053,-23.94 -10.496,-37.588 -10.908,-40.974 -0.022,0.418 2.74,4.351 6.512,11.702 4.362,7.382 9.223,16.477 15.758,27.761 5.937,11.253 11.897,22.087 17.844,33.34 5.937,11.253 11.353,21.216 15.691,29.02 19.908,39.344 33.271,67.398 39.498,84.557 1.011,3.422 2.587,7.293 3.554,11.552 0.966,4.259 1.357,8.068 1.813,10.618 l 0.465,2.545 c -0.685,1.651 -1.905,2.426 -3.091,2.364 L 34.479,67.037 C 21.964,45.337 10.079,22.831 0,0" /></g><g
           transform="translate(773.2871,789.1646)"
           id="g26"><path
             id="path28"
             style="fill:#ffffff;fill-opacity:1;fill-rule:nonzero;stroke:none"
             d="m 0,0 c -50.269,-26.202 -91.938,-57.845 -124.995,-95.346 -20.699,-24.235 -30.299,-44.94 -29.399,-62.144 0.352,-6.716 2.434,-12.502 6.843,-17.322 6.294,-6.824 19.716,-13.699 40.236,-20.198 15.718,-5.491 26.004,-9.161 30.848,-11.009 l 0.588,0.03 c 0.62,-0.391 0.62,-0.391 1.231,-0.779 0.587,0.031 0.544,0.872 1.053,2.581 0.523,1.29 0.413,3.387 0.901,5.519 0.478,2.126 1.554,4.289 2.033,6.42 15.366,69.402 36.028,128.143 62.55,177.093 z" /></g><g
           transform="translate(843.0137,859.8906)"
           id="g30"><path
             id="path32"
             style="fill:#ffffff;fill-opacity:1;fill-rule:nonzero;stroke:none"
             d="M 0,0 C 2.644,-2.474 5.26,-4.978 7.827,-7.53 5.26,-4.978 2.645,-2.474 0,0" /></g><g
           transform="translate(365.5078,584.7422)"
           id="g34"><path
             id="path36"
             style="fill:#ffffff;fill-opacity:1;fill-rule:nonzero;stroke:none"
             d="m 0,0 1.542,4.708 c -5.92,-0.31 -23.949,-7.568 -54.068,-21.769 l 42.751,-0.288 C -7.448,-16.384 -4.207,-10.323 0,0" /></g><g
           transform="translate(833.5654,868.4375)"
           id="g38"><path
             id="path40"
             style="fill:#ffffff;fill-opacity:1;fill-rule:nonzero;stroke:none"
             d="M 0,0 C 2.74,-2.386 5.433,-4.823 8.098,-7.29 5.433,-4.823 2.74,-2.386 0,0" /></g><g
           transform="translate(592.3828,491.8203)"
           id="g42"><path
             id="path44"
             style="fill:#ffffff;fill-opacity:1;fill-rule:nonzero;stroke:none"
             d="m 0,0 c -1.054,-2.581 -2.063,-6.003 -1.954,-8.1 0.22,-4.196 -0.215,-7.169 -1.988,-7.261 -0.599,-0.032 -3.027,1.104 -6.053,2.209 -6.716,3.437 -9.255,6.673 -9.65,14.225 -0.351,6.716 1.27,9.745 4.229,9.901 3.55,0.185 12.605,-2.705 15.109,-5.1 C 0.923,5.1 1.533,4.708 1.577,3.871 1.621,3.029 1.098,1.739 0,0 m 258.479,360.519 c -0.051,-0.071 -0.094,-0.132 -0.147,-0.204 -2.851,-2.251 -10.628,-12.341 -22.179,-29.778 10.256,-3.252 18.223,-7.887 23.265,-13.514 2.473,-1.972 3.79,-4.429 5.108,-6.885 0.742,-2.907 0.917,-6.267 1.16,-10.882 0.988,-18.887 -20.645,-70.526 -65.489,-154.943 l -13.46,-26.377 8.019,5.471 c 36.132,24.195 65.14,37.079 87.626,38.257 l 9.589,-1.605 c 17.448,-4.558 26.214,-13.358 26.895,-26.367 1.164,-22.247 -13.21,-53.723 -42.498,-95.236 -28.322,-37.258 -60.022,-66.696 -95.135,-87.474 -13.817,-8.295 -30.607,-16.333 -49.812,-23.647 -19.184,-7.738 -36.083,-13.675 -51.916,-17.448 -9.381,-2.178 -18.828,-3.092 -29.484,-3.65 -7.694,-0.403 -15.476,0.872 -22.78,4.279 -4.845,1.852 -7.347,4.247 -7.458,6.343 -0.043,0.841 0.51,1.709 1.032,2.999 0.545,0.872 1.687,1.776 2.829,2.674 1.164,0.486 2.318,0.965 2.917,0.996 2.383,-0.295 4.277,-2.301 6.293,-6.824 0.654,-1.228 1.906,-2.426 2.539,-3.236 0.619,-0.387 3.003,-0.682 6.561,-0.495 11.831,0.619 31.147,5.838 56.738,16.013 79.708,30.689 140.368,85.209 183.745,163.659 11.33,21.634 16.393,38.312 15.8,49.647 -0.132,2.519 -0.241,4.615 -0.895,5.843 -1.252,1.198 -1.296,2.039 -1.906,2.426 -0.621,0.387 -1.208,0.356 -1.829,0.748 C 263.56,147.21 223.259,123.217 172.117,79.713 161.88,71.18 155.591,66.643 153.816,66.55 c -2.96,-0.155 -5.354,0.143 -7.791,1.274 -3.004,0.687 -4.823,1.435 -7.207,1.73 8.134,-7.991 12.786,-17.427 13.357,-28.344 0.176,-3.355 -0.158,-8.424 -0.971,-15.62 -2.846,-13.616 -7.684,-23.13 -13.961,-28.086 -2.873,-1.837 -5.213,-2.379 -6.988,-2.472 l -2.371,-0.124 c -11.885,0.222 -19.689,1.914 -22.824,5.119 -3.747,3.589 -5.895,10.634 -6.401,20.287 -0.724,13.849 0.76,30.764 5.059,50.767 l 1.725,12.3 c -9.732,4.537 -23.676,10.122 -42.378,15.877 -10.263,3.251 -17.514,5.817 -22.978,8.056 -21.815,8.538 -33.15,20.993 -34.007,37.361 -1.56,29.799 23.258,66.031 75.032,108.725 34.727,28.329 73.286,51.392 115.668,69.604 18.158,24.887 32.941,42.778 44.393,53.622 -62.498,54.422 -144.176,87.384 -233.556,87.384 -180.1,0 -328.926,-133.811 -352.54,-307.433 0.392,2.889 0.819,5.768 1.281,8.635 28.866,28.161 66.35,57.14 112.021,86.549 70.634,45.364 120.459,68.593 148.286,70.049 l 1.796,-0.325 c 1.774,0.093 5.19,2.797 10.869,7.722 11.27,11.532 23.193,21.835 35.759,31.333 12.557,9.493 22.402,14.217 28.889,14.98 1.806,-0.329 3.602,-0.655 5.398,-0.98 1.818,-0.748 3.636,-1.492 4.866,-2.271 1.23,-0.779 1.862,-1.585 1.928,-2.845 -0.5,-1.708 -1.054,-2.581 -1.642,-2.612 l -2.372,-0.124 c -1.177,-0.061 -9.727,-6.823 -25.644,-20.28 -3.926,-4.414 -12.366,-13.277 -24.202,-25.258 -3.95,-3.995 -6.18,-6.638 -6.734,-7.505 0.023,-0.423 1.296,-2.039 4.388,-4.403 6.162,-4.305 10.018,-9.993 11.533,-16.229 0.817,-4.165 1.648,-8.754 1.955,-14.628 0.659,-12.594 -1.399,-29.954 -5.589,-52.062 -5.735,-26.392 -11.414,-54.045 -18.18,-83.441 19.025,-0.687 32.771,-2.493 40.621,-5.027 7.869,-2.958 12.279,-7.773 12.608,-14.071 l -0.544,-0.872 c -0.597,-0.031 -1.208,0.361 -3.026,1.105 -6.096,3.05 -11.538,4.867 -15.719,5.491 -3.602,0.655 -13.113,0.996 -27.98,1.481 l -6.509,-0.341 C -64.969,129.59 -72.829,87.093 -85.607,2.253 c -6.728,-41.6 -9.26,-72.456 -8.206,-92.603 0.286,-5.456 1.093,-9.622 1.813,-12.11 0.022,-0.418 -0.544,-0.867 -1.729,-0.93 -0.589,-0.03 -1.796,0.327 -3.593,0.652 -4.823,1.429 -8.468,2.925 -10.33,4.51 -1.84,1.167 -3.333,6.979 -3.883,17.473 -1.428,27.28 5.624,96.676 21.155,208.176 l -0.022,0.418 -2.363,-0.123 c -17.76,-0.93 -48.319,-6.737 -92.303,-17.037 l -9.003,-20.672 -6.272,-16.322 c 0.044,-0.837 3.048,-1.523 8.468,-2.921 12.648,-3.547 21.151,-7.31 25.539,-11.712 4.388,-4.399 6.47,-10.185 6.865,-17.737 0.484,-9.234 -6.377,-25.586 -20.579,-49.057 -17.562,-27.436 -30.821,-46.225 -40.971,-56.436 -7.321,-7.541 -13.664,-11.237 -19.583,-11.548 -11.897,0.641 -20.911,2.695 -26.984,5.323 -3.658,1.91 -5.705,6.854 -6.123,14.829 -1.076,20.564 10.407,61.993 35.682,123.497 l -65.747,-2.598 c -16.062,-0.841 -30.006,-0.834 -41.86,0.003 -0.294,2.444 -0.575,4.892 -0.818,7.35 4.228,0 9.196,0.154 14.965,0.457 14.203,0.743 26.044,1.363 35.535,1.44 l 0.466,2.546 c 0.715,8.877 27.286,22.893 80.3,42.085 16.569,34.956 35.577,68.777 55.805,101.823 26.46,38.844 47.571,66.465 63.356,82.441 -16.378,-4.646 -37.247,-14.155 -62.611,-28.531 -55.968,-30.708 -104.091,-63.947 -144.364,-99.724 -18.798,-16.474 -33.603,-31.476 -44.515,-45.043 0.542,8.88 1.408,17.671 2.588,26.363 -2.149,-15.815 -3.284,-31.952 -3.284,-48.355 0,-196.52 159.311,-355.83 355.83,-355.83 196.52,0 355.83,159.31 355.83,355.83 0,98.635 -40.14,187.889 -104.968,252.339" /></g><g
           transform="translate(426.0352,641.7812)"
           id="g46"><path
             id="path48"
             style="fill:#ffffff;fill-opacity:1;fill-rule:nonzero;stroke:none"
             d="m 0,0 c -2.674,-5.611 -4.816,-9.936 -6.402,-13.803 -2.165,-3.902 -3.242,-6.065 -3.219,-6.483 l 0.61,-0.387 c 1.761,0.511 10.576,2.236 26.466,4.75 30.624,4.548 48.907,6.768 55.425,7.109 1.774,0.093 2.961,0.155 4.125,0.635 0.588,0.031 1.664,2.194 2.032,6.421 0.857,6.36 1.247,10.169 1.159,11.846 l 10.829,65.38 c 7.861,42.497 11.322,67.088 10.948,74.227 -0.067,1.259 -0.088,1.678 -0.677,1.647 -1.186,-0.062 -3.991,-3.155 -9.007,-9.312 C 63.835,107.295 37.396,68.034 12.407,23.796 6.447,12.962 2.697,5.188 0,0" /></g><g
           transform="translate(382.4834,543.9639)"
           id="g50"><path
             id="path52"
             style="fill:#ffffff;fill-opacity:1;fill-rule:nonzero;stroke:none"
             d="m 0,0 c -7.382,-17.643 -15.076,-40.772 -24.215,-70.293 -4.097,-12.42 -6.553,-22.228 -6.776,-29.393 C 6.915,-52.67 25.412,-20.559 24.445,-2.09 24.204,2.53 21.644,6.18 17.3,9.741 13.566,12.915 9.93,14.407 7.567,14.283 6.403,13.803 3.686,9.029 0,0" /></g><g
           transform="translate(841.6631,861.1475)"
           id="g54"><path
             id="path56"
             style="fill:#ffffff;fill-opacity:1;fill-rule:nonzero;stroke:none"
             d="M 0,0 C 0.451,-0.418 0.901,-0.837 1.351,-1.257 0.901,-0.836 0.451,-0.418 0,0" /></g><g
           transform="translate(833.5557,868.4463)"
           id="g58"><path
             id="path60"
             style="fill:#ffffff;fill-opacity:1;fill-rule:nonzero;stroke:none"
             d="M 0,0 V 0 C 0.004,-0.003 0.007,-0.006 0.01,-0.009 0.007,-0.006 0.003,-0.002 0,0" /></g><g
           transform="translate(850.8633,852.3398)"
           id="g62"><path
             id="path64"
             style="fill:#ffffff;fill-opacity:1;fill-rule:nonzero;stroke:none"
             d="M 0,0 C -0.008,0.007 -0.015,0.014 -0.022,0.021 -0.015,0.014 -0.008,0.007 -0.001,0 Z" /></g><g
           transform="translate(247.4541,648.355)"
           id="g66"><path
             id="path68"
             style="fill:#ffffff;fill-opacity:1;fill-rule:nonzero;stroke:none"
             d="M 0,0 C 0.001,0.014 0.003,0.028 0.006,0.042 0.003,0.028 0.001,0.014 0,0" /></g></g></g></g></svg>